<?xml version="1.0" encoding="UTF-8"?>
<svg id="_0" data-name="0" xmlns="http://www.w3.org/2000/svg" width="297mm" height="269.894mm" viewBox="0 0 841.89 765.054">
  <g id="CIRCLE">
    <circle cx="369.03" cy="452.141" r="11.221" fill="none" stroke="red" stroke-linecap="round" stroke-linejoin="round" stroke-width=".709"/>
  </g>
  <g id="LWPOLYLINE">
    <rect x="175.397" y="47.859" width="509.386" height="674.646" fill="none" stroke="lime" stroke-linecap="round" stroke-linejoin="round" stroke-width=".709"/>
  </g>
  <g id="CIRCLE-2" data-name="CIRCLE">
    <circle cx="338.133" cy="451.769" r="2.835" fill="none" stroke="red" stroke-linecap="round" stroke-linejoin="round" stroke-width=".709"/>
  </g>
  <g id="LWPOLYLINE-2" data-name="LWPOLYLINE">
    <rect x="306.697" y="577.428" width="49.776" height="33.392" rx="7.087" ry="7.087" fill="none" stroke="red" stroke-linecap="round" stroke-linejoin="round" stroke-width=".709"/>
  </g>
  <g id="LWPOLYLINE-3" data-name="LWPOLYLINE">
    <rect x="411.635" y="430.537" width="181.248" height="147.798" rx="8.872" ry="8.872" fill="none" stroke="red" stroke-linecap="round" stroke-linejoin="round" stroke-width=".709"/>
  </g>
  <g id="_0-2" data-name=" 0">
    <g>
      <path d="M548.437,679.739c.475.938,1.191,1.511,2.128,1.511,1.499,0,2.095-1.455,2.095-3.076,0-1.852-.739-3.043-2.084-3.043-.804,0-1.543.419-2.139,1.477M548.437,675.13v8.213" fill="none" stroke="#000" stroke-linecap="round" stroke-linejoin="round" stroke-width=".441"/>
      <path d="M558.514,681.248c-.033-.407-.044-1.07-.044-1.521v-2.646c0-1.07-.429-1.951-1.709-1.951-.937,0-1.488.43-1.852,1.268M558.47,677.853h-.673c-2.227,0-3.153.584-3.153,1.842,0,.805.485,1.554,1.533,1.554.948,0,1.687-.629,2.293-1.433" fill="none" stroke="#000" stroke-linecap="round" stroke-linejoin="round" stroke-width=".441"/>
      <path d="M561.381,679.739c.475.938,1.191,1.511,2.128,1.511,1.499,0,2.095-1.455,2.095-3.076,0-1.852-.739-3.043-2.084-3.043-.804,0-1.543.419-2.139,1.477M561.381,675.13v8.213" fill="none" stroke="#000" stroke-linecap="round" stroke-linejoin="round" stroke-width=".441"/>
      <path d="M567.61,677.886h4.234c0-1.235-.407-2.756-2.007-2.756-1.379,0-2.249,1.147-2.249,3.087,0,1.752.706,3.031,2.283,3.031,1.036,0,1.61-.563,1.885-1.213" fill="none" stroke="#000" stroke-linecap="round" stroke-linejoin="round" stroke-width=".441"/>
      <path d="M574.324,676.674c.783-.904,1.511-1.543,2.183-1.543M574.324,675.13v6.118" fill="none" stroke="#000" stroke-linecap="round" stroke-linejoin="round" stroke-width=".441"/>
      <path d="M579.792,681.204c-.078.022-.198.044-.342.044-.629,0-.948-.385-.948-1.179v-7.034" fill="none" stroke="#000" stroke-linecap="round" stroke-linejoin="round" stroke-width=".441"/>
      <path d="M581.523,677.886h4.234c0-1.235-.407-2.756-2.007-2.756-1.379,0-2.249,1.147-2.249,3.087,0,1.752.706,3.031,2.283,3.031,1.036,0,1.61-.563,1.885-1.213" fill="none" stroke="#000" stroke-linecap="round" stroke-linejoin="round" stroke-width=".441"/>
      <path d="M587.686,679.947c.265.816,1.048,1.301,1.984,1.301.893,0,1.83-.452,1.83-1.488,0-2.04-3.605-1.334-3.605-3.253,0-.97.926-1.379,1.72-1.379.772,0,1.379.385,1.654,1.025" fill="none" stroke="#000" stroke-linecap="round" stroke-linejoin="round" stroke-width=".441"/>
      <path d="M593.43,679.947c.265.816,1.048,1.301,1.984,1.301.893,0,1.83-.452,1.83-1.488,0-2.04-3.605-1.334-3.605-3.253,0-.97.926-1.379,1.72-1.379.772,0,1.379.385,1.654,1.025" fill="none" stroke="#000" stroke-linecap="round" stroke-linejoin="round" stroke-width=".441"/>
      <path d="M599.724,679.739c.475.938,1.191,1.511,2.128,1.511,1.499,0,2.095-1.455,2.095-3.076,0-1.852-.739-3.043-2.084-3.043-.804,0-1.543.419-2.139,1.477M599.724,675.13v8.213" fill="none" stroke="#000" stroke-linecap="round" stroke-linejoin="round" stroke-width=".441"/>
      <path d="M609.801,681.248c-.033-.407-.044-1.07-.044-1.521v-2.646c0-1.07-.429-1.951-1.709-1.951-.937,0-1.488.43-1.852,1.268M609.757,677.853h-.673c-2.227,0-3.153.584-3.153,1.842,0,.805.485,1.554,1.533,1.554.948,0,1.687-.629,2.293-1.433" fill="none" stroke="#000" stroke-linecap="round" stroke-linejoin="round" stroke-width=".441"/>
      <path d="M612.667,679.739c.475.938,1.191,1.511,2.128,1.511,1.499,0,2.095-1.455,2.095-3.076,0-1.852-.739-3.043-2.084-3.043-.804,0-1.543.419-2.139,1.477M612.667,675.13v8.213" fill="none" stroke="#000" stroke-linecap="round" stroke-linejoin="round" stroke-width=".441"/>
      <path d="M618.897,677.886h4.234c0-1.235-.407-2.756-2.007-2.756-1.379,0-2.249,1.147-2.249,3.087,0,1.752.706,3.031,2.283,3.031,1.036,0,1.61-.563,1.885-1.213" fill="none" stroke="#000" stroke-linecap="round" stroke-linejoin="round" stroke-width=".441"/>
      <path d="M625.61,676.674c.783-.904,1.511-1.543,2.183-1.543M625.61,675.13v6.118" fill="none" stroke="#000" stroke-linecap="round" stroke-linejoin="round" stroke-width=".441"/>
      <path d="M629.072,680.456c-.253,0-.441.198-.441.452s.198.452.452.452.441-.198.441-.452-.187-.452-.429-.452" fill="none" stroke="#000" stroke-linecap="round" stroke-linejoin="round" stroke-width=".441"/>
      <path d="M635.622,676.607c-.595-1.058-1.334-1.477-2.139-1.477-1.345,0-2.084,1.191-2.084,3.043,0,1.621.595,3.076,2.095,3.076.938,0,1.654-.573,2.128-1.511M635.622,681.248v-8.213" fill="none" stroke="#000" stroke-linecap="round" stroke-linejoin="round" stroke-width=".441"/>
      <path d="M638.179,677.886h4.234c0-1.235-.407-2.756-2.007-2.756-1.379,0-2.249,1.147-2.249,3.087,0,1.752.706,3.031,2.283,3.031,1.036,0,1.61-.563,1.885-1.213" fill="none" stroke="#000" stroke-linecap="round" stroke-linejoin="round" stroke-width=".441"/>
    </g>
  </g>
  <line x1="323.31" y1="617.987" x2="338.825" y2="617.987" fill="none" stroke="#ff0" stroke-linecap="round" stroke-linejoin="round" stroke-width=".3"/>
  <line x1="323.338" y1="621.699" x2="327.133" y2="621.699" fill="none" stroke="#ff0" stroke-linecap="round" stroke-linejoin="round" stroke-width=".3"/>
  <line x1="329.226" y1="621.727" x2="333.021" y2="621.727" fill="none" stroke="#ff0" stroke-linecap="round" stroke-linejoin="round" stroke-width=".3"/>
  <line x1="335.114" y1="621.699" x2="338.909" y2="621.699" fill="none" stroke="#ff0" stroke-linecap="round" stroke-linejoin="round" stroke-width=".3"/>
  <g>
    <path d="M203.934,668.008h5.72M206.794,676.718v-8.71" fill="none" stroke="#000" stroke-linecap="round" stroke-linejoin="round" stroke-width=".52"/>
    <path d="M216.322,676.719v-5.395c0-1.131-.52-1.82-1.521-1.82-1.157,0-2.015.91-2.808,1.82M211.993,676.719v-9.685" fill="none" stroke="#000" stroke-linecap="round" stroke-linejoin="round" stroke-width=".52"/>
    <path d="M219.91,666.513h-.026M219.897,667.904v-1.391M219.91,669.503h-.026M219.897,676.718v-7.215" fill="none" stroke="#000" stroke-linecap="round" stroke-linejoin="round" stroke-width=".52"/>
    <path d="M222.757,675.185c.312.962,1.235,1.534,2.34,1.534,1.053,0,2.158-.533,2.158-1.755,0-2.405-4.251-1.573-4.251-3.835,0-1.144,1.092-1.625,2.028-1.625.91,0,1.625.455,1.95,1.209" fill="none" stroke="#000" stroke-linecap="round" stroke-linejoin="round" stroke-width=".52"/>
    <path d="M234.353,666.513h-.026M234.34,667.904v-1.391M234.353,669.503h-.026M234.34,676.718v-7.215" fill="none" stroke="#000" stroke-linecap="round" stroke-linejoin="round" stroke-width=".52"/>
    <path d="M237.2,675.185c.312.962,1.235,1.534,2.34,1.534,1.053,0,2.158-.533,2.158-1.755,0-2.405-4.251-1.573-4.251-3.835,0-1.144,1.092-1.625,2.028-1.625.91,0,1.625.455,1.95,1.209" fill="none" stroke="#000" stroke-linecap="round" stroke-linejoin="round" stroke-width=".52"/>
    <path d="M252.695,676.719c-.039-.481-.052-1.261-.052-1.794v-3.12c0-1.261-.507-2.301-2.015-2.301-1.105,0-1.755.507-2.184,1.495M252.643,672.715h-.793c-2.626,0-3.718.689-3.718,2.171,0,.949.572,1.833,1.807,1.833,1.118,0,1.989-.741,2.704-1.69" fill="none" stroke="#000" stroke-linecap="round" stroke-linejoin="round" stroke-width=".52"/>
    <path d="M259.066,670.219h3.211M260.366,676.719v-8.047c0-1.001.481-1.638,1.404-1.638.351,0,.663.091.91.273" fill="none" stroke="#000" stroke-linecap="round" stroke-linejoin="round" stroke-width=".52"/>
    <path d="M266.579,669.504c-2.132,0-2.665,2.223-2.665,3.64,0,1.755.806,3.575,2.678,3.575s2.678-1.82,2.678-3.575c0-1.417-.533-3.64-2.665-3.64" fill="none" stroke="#000" stroke-linecap="round" stroke-linejoin="round" stroke-width=".52"/>
    <path d="M276.589,676.719v-5.395c0-1.131-.52-1.82-1.521-1.82-1.157,0-2.015.91-2.808,1.82M272.26,669.504v7.215" fill="none" stroke="#000" stroke-linecap="round" stroke-linejoin="round" stroke-width=".52"/>
    <path d="M278.994,670.205h3.419M282.595,676.367c-.234.208-.598.351-1.04.351-.806,0-1.261-.455-1.261-1.521v-7.059" fill="none" stroke="#000" stroke-linecap="round" stroke-linejoin="round" stroke-width=".52"/>
    <path d="M288.185,670.205h3.419M291.786,676.367c-.234.208-.598.351-1.04.351-.806,0-1.261-.455-1.261-1.521v-7.059" fill="none" stroke="#000" stroke-linecap="round" stroke-linejoin="round" stroke-width=".52"/>
    <path d="M298.715,676.719v-5.395c0-1.131-.52-1.82-1.521-1.82-1.157,0-2.015.91-2.808,1.82M294.386,676.719v-9.685" fill="none" stroke="#000" stroke-linecap="round" stroke-linejoin="round" stroke-width=".52"/>
    <path d="M306.203,676.719c-.039-.481-.052-1.261-.052-1.794v-3.12c0-1.261-.507-2.301-2.015-2.301-1.105,0-1.755.507-2.184,1.495M306.151,672.715h-.793c-2.626,0-3.718.689-3.718,2.171,0,.949.572,1.833,1.807,1.833,1.118,0,1.989-.741,2.704-1.69" fill="none" stroke="#000" stroke-linecap="round" stroke-linejoin="round" stroke-width=".52"/>
    <path d="M308.412,670.205h3.419M312.013,676.367c-.234.208-.598.351-1.04.351-.806,0-1.261-.455-1.261-1.521v-7.059" fill="none" stroke="#000" stroke-linecap="round" stroke-linejoin="round" stroke-width=".52"/>
    <path d="M318.787,666.513h-.026M318.774,667.904v-1.391M318.787,669.503h-.026M318.774,676.718v-7.215" fill="none" stroke="#000" stroke-linecap="round" stroke-linejoin="round" stroke-width=".52"/>
    <path d="M321.633,675.185c.312.962,1.235,1.534,2.34,1.534,1.053,0,2.158-.533,2.158-1.755,0-2.405-4.251-1.573-4.251-3.835,0-1.144,1.092-1.625,2.028-1.625.91,0,1.625.455,1.95,1.209" fill="none" stroke="#000" stroke-linecap="round" stroke-linejoin="round" stroke-width=".52"/>
    <path d="M207.248,685.504c-2.132,0-2.665,2.223-2.665,3.64,0,1.755.806,3.575,2.678,3.575s2.678-1.82,2.678-3.575c0-1.417-.533-3.64-2.665-3.64" fill="none" stroke="#000" stroke-linecap="round" stroke-linejoin="round" stroke-width=".52"/>
    <path d="M217.258,692.719v-5.395c0-1.131-.52-1.82-1.521-1.82-1.157,0-2.015.91-2.808,1.82M212.929,685.504v7.215" fill="none" stroke="#000" stroke-linecap="round" stroke-linejoin="round" stroke-width=".52"/>
    <path d="M222.289,692.667c-.091.026-.234.052-.403.052-.741,0-1.118-.455-1.118-1.391v-8.294" fill="none" stroke="#000" stroke-linecap="round" stroke-linejoin="round" stroke-width=".52"/>
    <path d="M224.239,694.994c.208.13.429.195.65.195.767,0,1.157-.767,1.651-2.249l2.756-7.436M226.592,692.719l-2.743-7.215" fill="none" stroke="#000" stroke-linecap="round" stroke-linejoin="round" stroke-width=".52"/>
    <path d="M239.969,692.719c-.039-.481-.052-1.261-.052-1.794v-3.12c0-1.261-.507-2.301-2.015-2.301-1.105,0-1.755.507-2.184,1.495M239.917,688.715h-.793c-2.626,0-3.718.689-3.718,2.171,0,.949.572,1.833,1.807,1.833,1.118,0,1.989-.741,2.704-1.69" fill="none" stroke="#000" stroke-linecap="round" stroke-linejoin="round" stroke-width=".52"/>
    <path d="M248.964,692.667c-.091.026-.234.052-.403.052-.741,0-1.118-.455-1.118-1.391v-8.294" fill="none" stroke="#000" stroke-linecap="round" stroke-linejoin="round" stroke-width=".52"/>
    <path d="M251.513,682.513h-.026M251.5,683.904v-1.391M251.513,685.503h-.026M251.5,692.718v-7.215" fill="none" stroke="#000" stroke-linecap="round" stroke-linejoin="round" stroke-width=".52"/>
    <path d="M259.469,692.719v-5.395c0-1.131-.52-1.82-1.521-1.82-1.157,0-2.015.91-2.808,1.82M255.14,685.504v7.215" fill="none" stroke="#000" stroke-linecap="round" stroke-linejoin="round" stroke-width=".52"/>
    <path d="M262.419,688.754h4.992c0-1.456-.481-3.25-2.366-3.25-1.625,0-2.652,1.352-2.652,3.64,0,2.067.832,3.575,2.691,3.575,1.222,0,1.898-.663,2.223-1.43" fill="none" stroke="#000" stroke-linecap="round" stroke-linejoin="round" stroke-width=".52"/>
    <path d="M270.076,691.783c-.299,0-.52.234-.52.533s.234.533.533.533.52-.234.52-.533-.221-.533-.507-.533" fill="none" stroke="#000" stroke-linecap="round" stroke-linejoin="round" stroke-width=".52"/>
  </g>
  <g>
    <path d="M414.484,404.252c-2.105,0-2.918,1.994-2.918,3.776,0,1.492.579,3.798,2.929,3.798s2.929-2.306,2.929-3.798c0-1.782-.813-3.776-2.918-3.776" fill="none" stroke="#ff0" stroke-linecap="round" stroke-linejoin="round" stroke-width=".446"/>
    <path d="M420.042,410.3c.479.947,1.203,1.526,2.15,1.526,1.515,0,2.116-1.47,2.116-3.108,0-1.871-.746-3.074-2.105-3.074-.813,0-1.559.423-2.161,1.492M420.042,405.644v8.298" fill="none" stroke="#ff0" stroke-linecap="round" stroke-linejoin="round" stroke-width=".446"/>
    <path d="M426.335,408.428h4.277c0-1.247-.412-2.785-2.027-2.785-1.392,0-2.272,1.158-2.272,3.119,0,1.771.713,3.063,2.306,3.063,1.047,0,1.626-.568,1.905-1.225" fill="none" stroke="#ff0" stroke-linecap="round" stroke-linejoin="round" stroke-width=".446"/>
    <path d="M436.827,411.825v-4.622c0-.969-.446-1.559-1.303-1.559-.991,0-1.726.78-2.406,1.559M433.118,405.644v6.182" fill="none" stroke="#ff0" stroke-linecap="round" stroke-linejoin="round" stroke-width=".446"/>
    <path d="M439.889,411.825v-7.462h1.971c1.57,0,2.317.846,2.317,2.027,0,1.214-.791,1.916-2.35,1.916h-1.938" fill="none" stroke="#ff0" stroke-linecap="round" stroke-linejoin="round" stroke-width=".446"/>
    <path d="M449.702,411.825c-.033-.412-.045-1.08-.045-1.537v-2.673c0-1.08-.434-1.971-1.726-1.971-.947,0-1.504.434-1.871,1.281M449.657,408.395h-.679c-2.25,0-3.185.59-3.185,1.86,0,.813.49,1.57,1.548,1.57.958,0,1.704-.635,2.317-1.448" fill="none" stroke="#ff0" stroke-linecap="round" stroke-linejoin="round" stroke-width=".446"/>
    <path d="M452.598,410.3c.479.947,1.203,1.526,2.15,1.526,1.515,0,2.116-1.47,2.116-3.108,0-1.871-.746-3.074-2.105-3.074-.813,0-1.559.423-2.161,1.492M452.598,405.644v8.298" fill="none" stroke="#ff0" stroke-linecap="round" stroke-linejoin="round" stroke-width=".446"/>
    <path d="M458.891,408.428h4.277c0-1.247-.412-2.785-2.027-2.785-1.392,0-2.272,1.158-2.272,3.119,0,1.771.713,3.063,2.306,3.063,1.047,0,1.626-.568,1.905-1.225" fill="none" stroke="#ff0" stroke-linecap="round" stroke-linejoin="round" stroke-width=".446"/>
    <path d="M465.674,407.203c.791-.913,1.526-1.559,2.205-1.559M465.674,405.644v6.182" fill="none" stroke="#ff0" stroke-linecap="round" stroke-linejoin="round" stroke-width=".446"/>
    <polyline points="473.47 411.825 477.023 404.408 477.023 404.363 472.512 404.363" fill="none" stroke="#ff0" stroke-linecap="round" stroke-linejoin="round" stroke-width=".446"/>
  </g>
  <g>
    <path d="M412.052,379.597v-13.072h3.453c2.751,0,4.058,1.483,4.058,3.551,0,2.127-1.385,3.356-4.117,3.356h-3.395" fill="none" stroke="#000" stroke-linecap="round" stroke-linejoin="round" stroke-width=".78"/>
    <path d="M431.288,379.597l-5.151-13.169h-.078l-5.229,13.169M422.489,375.442h7.16" fill="none" stroke="#000" stroke-linecap="round" stroke-linejoin="round" stroke-width=".78"/>
    <path d="M435.386,379.597v-13.072h3.453c2.751,0,4.058,1.483,4.058,3.551,0,2.127-1.385,3.356-4.117,3.356h-3.395" fill="none" stroke="#000" stroke-linecap="round" stroke-linejoin="round" stroke-width=".78"/>
    <path d="M446.896,372.652h6.711M453.939,379.402h-7.043v-12.877h7.043" fill="none" stroke="#000" stroke-linecap="round" stroke-linejoin="round" stroke-width=".78"/>
    <path d="M465.626,379.597l-3.434-6.711M458.231,379.597v-13.072h3.375c2.614,0,3.765,1.483,3.765,3.18,0,2.01-1.619,3.18-3.531,3.18h-3.609" fill="none" stroke="#000" stroke-linecap="round" stroke-linejoin="round" stroke-width=".78"/>
    <polyline points="476.22 379.402 470.016 379.402 470.016 366.331" fill="none" stroke="#000" stroke-linecap="round" stroke-linejoin="round" stroke-width=".78"/>
    <path d="M479.536,372.652h6.711M486.579,379.402h-7.043v-12.877h7.043" fill="none" stroke="#000" stroke-linecap="round" stroke-linejoin="round" stroke-width=".78"/>
    <path d="M490.188,377.471c.546,1.288,1.912,2.127,3.707,2.127,2.322,0,3.726-1.444,3.726-3.18,0-3.921-7.16-3.336-7.16-7.082,0-1.541,1.21-3.005,3.59-3.005,1.678,0,2.712.741,3.18,1.756" fill="none" stroke="#000" stroke-linecap="round" stroke-linejoin="round" stroke-width=".78"/>
    <path d="M501.23,377.471c.546,1.288,1.912,2.127,3.707,2.127,2.322,0,3.726-1.444,3.726-3.18,0-3.921-7.16-3.336-7.16-7.082,0-1.541,1.21-3.005,3.59-3.005,1.678,0,2.712.741,3.18,1.756" fill="none" stroke="#000" stroke-linecap="round" stroke-linejoin="round" stroke-width=".78"/>
    <path d="M455.187,398.221v-13.072h3.453c2.751,0,4.058,1.483,4.058,3.551,0,2.127-1.385,3.356-4.117,3.356h-3.395" fill="none" stroke="#000" stroke-linecap="round" stroke-linejoin="round" stroke-width=".78"/>
    <path d="M474.425,398.221l-5.151-13.169h-.078l-5.229,13.169M465.626,394.065h7.16" fill="none" stroke="#000" stroke-linecap="round" stroke-linejoin="round" stroke-width=".78"/>
    <path d="M478.521,398.221v-13.072h3.453c2.751,0,4.058,1.483,4.058,3.551,0,2.127-1.385,3.356-4.117,3.356h-3.395" fill="none" stroke="#000" stroke-linecap="round" stroke-linejoin="round" stroke-width=".78"/>
    <path d="M490.032,391.275h6.711M497.075,398.025h-7.043v-12.877h7.043" fill="none" stroke="#000" stroke-linecap="round" stroke-linejoin="round" stroke-width=".78"/>
    <path d="M508.761,398.221l-3.434-6.711M501.367,398.221v-13.072h3.375c2.614,0,3.765,1.483,3.765,3.18,0,2.01-1.619,3.18-3.531,3.18h-3.609" fill="none" stroke="#000" stroke-linecap="round" stroke-linejoin="round" stroke-width=".78"/>
  </g>
  <rect x="411.677" y="385.308" width="39.592" height="13.013" fill="none" stroke="#000" stroke-miterlimit="10" stroke-width=".803"/>
  <g>
    <path d="M312.411,621.265c.24.668.735,1.035,1.358,1.035.818,0,1.432-.63,1.432-1.56,0-.878-.555-1.553-1.448-1.553-.345,0-.788.098-1.102.292l.075-2.205h2.34" fill="none" stroke="#ff0" stroke-linecap="round" stroke-linejoin="round" stroke-width=".3"/>
    <polyline points="316.409 617.2 318.276 622.262 318.306 622.262 320.167 617.2" fill="none" stroke="#ff0" stroke-linecap="round" stroke-linejoin="round" stroke-width=".3"/>
    <polyline points="344.226 622.3 344.226 617.275 344.196 617.275 342.591 618.407" fill="none" stroke="#ff0" stroke-linecap="round" stroke-linejoin="round" stroke-width=".3"/>
    <path d="M349.971,622.3l-1.98-5.062h-.03l-2.01,5.062M346.588,620.702h2.753" fill="none" stroke="#ff0" stroke-linecap="round" stroke-linejoin="round" stroke-width=".3"/>
  </g>
</svg>